
<svg version="1.1" id="Layer_1" xmlns="http://www.w3.org/2000/svg" xmlns:xlink="http://www.w3.org/1999/xlink" x="0px" y="0px"
	 viewBox="0 0 100 100" enable-background="new 0 0 100 100" xml:space="preserve">
<path id="XMLID_x5F_2_x5F_" fill="none" d="M92.5,50.5c0,24.3-19.7,44-44,44s-44-19.7-44-44s19.7-44,44-44S92.5,26.2,92.5,50.5z">
	<animateTransform attributeName="transform"
				atributeType="XML"
				type="rotate"
				from="0 50 50"
				to="360 50 50"
				dur="10s"
				repeatCount="indefinite"/>
</path>
<text id="XMLID_9_"><textPath  xlink:href="#XMLID_x5F_2_x5F_" startOffset="86.4583%">
<tspan  fill="#020724" font-family="'LucidaFax'" font-size="5.1463px" letter-spacing="97">Appey Apps for life.  Choose you own version of our app todaday!</tspan></textPath>
</text>
<g id="XMLID_5_">
	<path id="XMLID_7_" fill="#020724" d="M48.7,16.5c-18.8,0-34.1,15.3-34.1,34.1c0,18.8,15.3,34.1,34.1,34.1
		c18.8,0,34.1-15.3,34.1-34.1C82.7,31.8,67.5,16.5,48.7,16.5z M55.7,63L53,54h-8.9l-2.6,9h-3.3l8.5-26h3.9l8.5,26H55.7z"/>
	<path id="XMLID_6_" fill="#020724" d="M48.6,40L48.6,40c-0.4,2-0.9,3.1-1.3,4.6L44.8,52h7.5l-2.4-7.3C49.3,43.1,48.9,42,48.6,40z"
		/>
</g>
</svg>
