<?xml version="1.0" encoding="utf-8"?>
<!-- Generator: Adobe Illustrator 19.0.0, SVG Export Plug-In . SVG Version: 6.00 Build 0)  -->
<svg version="1.1" id="Layer_1" xmlns="http://www.w3.org/2000/svg" xmlns:xlink="http://www.w3.org/1999/xlink" x="0px" y="0px"
	 viewBox="0 0 100 100" enable-background="new 0 0 100 100" xml:space="preserve">
<g id="XMLID_5_">
	<path id="XMLID_7_" fill="#020724" d="M49.5,13.6c-20.5,0-37.2,16.6-37.2,37.2C12.3,71.3,28.9,88,49.5,88
		C70,88,86.6,71.3,86.6,50.8C86.6,30.3,70,13.6,49.5,13.6z M57.1,64l-2.9-9h-9.7l-2.8,9h-3.6l9.2-29h4.2l9.3,29H57.1z"/>
	<path id="XMLID_6_" fill="#020724" d="M49.4,39L49.4,39c-0.5,2-0.9,3.9-1.5,5.5L45.3,53h8.2l-2.7-8.4C50.2,42.8,49.8,41,49.4,39z"
		/>
</g>
<g id="XMLID_1_">
	
		<circle id="XMLID_14_" fill="none" stroke="#020724" stroke-width="4" stroke-miterlimit="10" stroke-dasharray="12.3013,12.3013" cx="49.8" cy="50.3" r="47"
			<animateTransform attributeName="transform"
				atributeType="XML"
				type="rotate"
				from="0 50 50"
				to="360 50 50"
				dur="10s"
				repeatCount="indefinite"
			/>
		
		</circle>
</g>
</svg>
